<?xml version="1.0" standalone="no"?>
<!DOCTYPE svg PUBLIC "-//W3C//DTD SVG 20010904//EN"
 "http://www.w3.org/TR/2001/REC-SVG-20010904/DTD/svg10.dtd">
<svg version="1.0" xmlns="http://www.w3.org/2000/svg"
 viewBox="213 449 600 125"
 preserveAspectRatio="xMidYMid meet">
<metadata>
Created by potrace 1.16, written by Peter Selinger 2001-2019
</metadata>
<g transform="translate(0.000000,1024.000000) scale(0.100000,-0.100000)"
fill="#550a31" stroke="none">
<path d="M2586 5548 c-49 -112 -171 -391 -272 -620 -101 -229 -184 -419 -184
-422 0 -3 75 -6 168 -6 l167 0 46 108 c263 620 333 782 339 775 4 -4 91 -205
195 -445 l188 -438 165 0 c152 0 164 1 159 18 -3 9 -103 242 -222 517 -119
275 -238 548 -262 608 l-46 107 -176 0 -177 0 -88 -202z M3260 5741 c0 -8 72
-175 400 -933 l133 -308 168 0 c93 0 169 2 169 4 0 2 -15 37 -34 77 -40 90
-250 573 -397 914 l-107 250 -166 3 c-94 1 -166 -1 -166 -7z M7483 5720 c-143
-37 -245 -124 -312 -263 -56 -117 -75 -218 -69 -381 4 -107 10 -145 32 -210
33 -97 99 -200 158 -249 97 -80 249 -125 373 -112 226 25 378 162 442 396 25
90 25 348 0 438 -82 300 -338 456 -624 381z m234 -196 c55 -20 115 -86 144
-160 21 -54 23 -74 24 -239 0 -118 -4 -194 -13 -222 -18 -60 -70 -133 -120
-168 -37 -25 -55 -30 -118 -33 -95 -5 -148 14 -202 72 -76 83 -107 232 -91
445 19 253 172 377 376 305z M4264 5706 c-3 -7 -4 -276 -2 -597 l3 -584 118
-3 117 -3 0 251 0 250 240 0 240 0 0 95 0 95 -240 0 -240 0 0 160 0 160 273 2
272 3 0 90 0 90 -388 3 c-324 2 -388 0 -393 -12z M5184 5705 c-4 -9 -4 -278
-2 -598 l5 -582 376 -3 377 -2 0 95 0 95 -260 0 -260 0 -2 503 -3 502 -113 3
c-94 2 -113 0 -118 -13z M6037 5714 c-11 -11 -8 -781 3 -859 33 -225 198 -350
460 -348 160 1 263 43 354 143 88 98 96 150 96 663 l0 407 -114 0 -115 0 -3
-437 c-3 -481 -2 -467 -66 -536 -65 -69 -225 -74 -310 -11 -68 52 -66 41 -72
534 l-5 445 -111 3 c-60 1 -113 -1 -117 -4z"/>
</g>
</svg>
